<svg xmlns="http://www.w3.org/2000/svg" width="26.297" height="28.029" viewBox="0 0 26.297 28.029">
  <g id="Page-1" transform="translate(0.213 0.056)">
    <g id="Artboard" transform="translate(1 0.973)">
      <g id="github" transform="translate(0 0)">
        <path id="Shape" d="M8.645,23.264C2.47,25.118,2.47,20.172,0,19.554m17.291,7.419V22.188a4.17,4.17,0,0,0-1.161-3.227c3.878-.433,7.954-1.9,7.954-8.656a6.73,6.73,0,0,0-1.852-4.636,6.276,6.276,0,0,0-.112-4.663s-1.457-.433-4.829,1.83a16.506,16.506,0,0,0-8.645,0C5.274.574,3.816,1.006,3.816,1.006a6.276,6.276,0,0,0-.111,4.662,6.731,6.731,0,0,0-1.853,4.674c0,6.7,4.076,8.173,7.954,8.656a4.17,4.17,0,0,0-1.161,3.19v4.785" transform="translate(0 -0.973)" fill="none" stroke="#fff" stroke-linecap="round" stroke-linejoin="round" stroke-width="2" fill-rule="evenodd"/>
      </g>
    </g>
  </g>
</svg>
