<svg xmlns="http://www.w3.org/2000/svg" width="26.006" height="26" viewBox="0 0 26.006 26">
  <path id="Icon_awesome-instagram" data-name="Icon awesome-instagram" d="M13,8.572a6.666,6.666,0,1,0,6.666,6.666A6.656,6.656,0,0,0,13,8.572Zm0,11a4.334,4.334,0,1,1,4.334-4.334A4.342,4.342,0,0,1,13,19.572ZM21.494,8.3a1.555,1.555,0,1,1-1.555-1.555A1.551,1.551,0,0,1,21.494,8.3Zm4.415,1.578a7.694,7.694,0,0,0-2.1-5.448,7.745,7.745,0,0,0-5.448-2.1c-2.147-.122-8.581-.122-10.727,0A7.734,7.734,0,0,0,2.186,4.423a7.72,7.72,0,0,0-2.1,5.448c-.122,2.147-.122,8.581,0,10.727a7.694,7.694,0,0,0,2.1,5.448,7.755,7.755,0,0,0,5.448,2.1c2.147.122,8.581.122,10.727,0a7.694,7.694,0,0,0,5.448-2.1,7.745,7.745,0,0,0,2.1-5.448c.122-2.147.122-8.575,0-10.721ZM23.136,22.9a4.388,4.388,0,0,1-2.471,2.471c-1.711.679-5.773.522-7.664.522s-5.958.151-7.664-.522A4.388,4.388,0,0,1,2.865,22.9c-.679-1.711-.522-5.773-.522-7.664s-.151-5.958.522-7.664A4.388,4.388,0,0,1,5.337,5.1C7.048,4.423,11.109,4.58,13,4.58s5.958-.151,7.664.522a4.388,4.388,0,0,1,2.471,2.471c.679,1.711.522,5.773.522,7.664S23.815,21.2,23.136,22.9Z" transform="translate(0.005 -2.238)" fill="#fff"/>
</svg>
